<?xml version="1.0" standalone="no"?>
<!DOCTYPE svg PUBLIC "-//W3C//DTD SVG 20010904//EN"
 "http://www.w3.org/TR/2001/REC-SVG-20010904/DTD/svg10.dtd">
<svg version="1.0" xmlns="http://www.w3.org/2000/svg"
 width="6148.000000pt" height="3931.000000pt" viewBox="0 0 6148.000000 3931.000000"
 preserveAspectRatio="xMidYMid meet">

<g transform="translate(0.000000,3931.000000) scale(0.100000,-0.100000)"
fill="#000000" stroke="none">
<path d="M0 19655 l0 -19655 30740 0 30740 0 0 19655 0 19655 -30740 0 -30740
0 0 -19655z m31420 1783 c415 -699 802 -1350 859 -1447 204 -347 272 -462 503
-851 129 -217 304 -512 388 -655 84 -143 194 -330 245 -415 51 -85 100 -170
109 -187 l17 -33 -324 0 -324 0 -518 858 c-285 471 -550 910 -589 974 -191
315 -263 435 -287 477 -14 25 -59 100 -100 166 -41 66 -88 143 -103 170 -16
28 -66 111 -111 185 -195 323 -322 533 -344 573 -13 23 -45 76 -71 117 -89
141 -450 749 -450 758 0 5 55 107 121 228 67 120 139 251 161 291 23 42 44 70
51 67 7 -3 352 -577 767 -1276z m-670 -678 c309 -531 600 -1028 645 -1105 69
-117 127 -221 143 -258 2 -4 -115 -6 -259 -5 l-264 3 -217 360 c-225 373 -385
640 -442 735 -160 270 -168 281 -190 266 -12 -7 -126 -193 -254 -412 -224
-384 -314 -539 -557 -949 -62 -104 -165 -280 -230 -390 -105 -177 -272 -459
-583 -980 -52 -88 -102 -168 -110 -177 -14 -16 -39 -18 -259 -18 -208 0 -243
2 -243 15 0 13 686 1224 975 1720 67 116 135 233 151 261 112 198 662 1158
684 1194 35 58 155 266 260 450 168 294 161 283 175 269 7 -8 266 -448 575
-979z m-1222 833 c100 -5 122 -9 122 -21 0 -27 -261 -501 -289 -525 -9 -8 -61
-19 -119 -25 -353 -40 -581 -101 -851 -227 -251 -117 -410 -225 -595 -404
-201 -196 -353 -429 -469 -721 -150 -376 -183 -886 -86 -1325 25 -111 83 -300
115 -373 13 -30 24 -63 24 -73 0 -48 139 -280 272 -454 73 -96 285 -295 404
-379 89 -64 281 -168 419 -227 42 -17 253 -80 320 -94 210 -45 715 -64 807
-31 47 17 96 28 201 46 32 6 66 15 75 20 9 5 67 25 127 45 61 21 126 45 145
55 19 9 48 20 64 24 59 14 304 171 419 268 174 148 291 296 396 506 12 24 38
67 57 97 18 30 34 57 34 61 0 3 6 20 13 37 16 38 42 146 57 237 6 36 15 85 21
110 14 66 30 211 23 221 -3 5 -388 9 -915 9 -640 0 -909 3 -909 11 0 13 22 53
193 337 l139 232 1054 0 1054 0 0 -387 c0 -295 -4 -408 -15 -470 -94 -533
-319 -961 -696 -1328 -239 -232 -476 -390 -789 -522 -309 -132 -450 -165 -803
-189 -216 -15 -280 -16 -419 -6 -317 22 -474 46 -648 98 -456 137 -881 402
-1161 723 -230 263 -429 543 -467 656 -9 27 -38 92 -65 144 -48 95 -107 248
-107 279 0 9 -9 39 -19 67 -22 58 -65 241 -86 368 -22 129 -22 679 0 802 42
240 101 460 145 545 11 19 31 71 46 115 43 130 183 390 283 525 142 193 285
349 457 500 159 139 468 327 719 437 55 24 102 40 215 73 41 11 85 25 98 31
13 5 32 9 44 9 19 0 120 20 203 41 168 42 503 65 743 52z m2782 -3541 c63 -94
119 -186 120 -194 0 -5 -74 -8 -165 -8 -91 0 -165 3 -165 7 0 8 82 169 117
230 13 23 30 40 36 37 7 -2 32 -35 57 -72z"/>
</g>
</svg>
